<?xml version="1.0" encoding="utf-8"?>
<!-- Generator: Adobe Illustrator 23.0.1, SVG Export Plug-In . SVG Version: 6.00 Build 0)  -->
<svg version="1.1" id="Layer_1" xmlns="http://www.w3.org/2000/svg" xmlns:xlink="http://www.w3.org/1999/xlink" x="0px" y="0px"
	 viewBox="0 0 363.63 386.36" style="enable-background:new 0 0 363.63 386.36;" xml:space="preserve">
<style type="text/css">
	.st0{fill:#658895;}
	.st1{fill:none;}
	.st2{fill:#949494;}
	.st3{fill:#F6F6F6;}
	.st4{fill:#A2D6E9;}
	.st5{fill:#6D92A1;}
	.st6{fill:#F3F3F3;}
	.st7{fill:#858585;}
</style>
<g id="browser">
	<path class="st0" d="M253.7,297.27l-33.78-19.5c-0.35-0.2-0.69-0.44-1.03-0.69c-0.08-0.06-0.16-0.12-0.24-0.18
		c-0.33-0.26-0.65-0.53-0.97-0.82c-0.03-0.03-0.07-0.07-0.1-0.1c-0.24-0.23-0.48-0.48-0.71-0.73c-0.08-0.09-0.16-0.18-0.24-0.27
		c-0.19-0.22-0.38-0.45-0.56-0.68c-0.07-0.09-0.14-0.17-0.2-0.26c-0.24-0.32-0.48-0.65-0.7-0.99c-0.03-0.05-0.06-0.1-0.1-0.16
		c-0.19-0.29-0.37-0.59-0.54-0.9c-0.07-0.12-0.13-0.24-0.19-0.36c-0.1-0.19-0.2-0.39-0.3-0.59c-0.06-0.13-0.12-0.26-0.18-0.39
		c-0.09-0.2-0.18-0.41-0.26-0.62c-0.05-0.13-0.1-0.25-0.15-0.38c-0.09-0.23-0.17-0.46-0.24-0.69c-0.03-0.1-0.07-0.2-0.1-0.31
		c-0.1-0.33-0.19-0.67-0.27-1c0-0.01,0-0.02-0.01-0.03c-0.11-0.47-0.18-0.93-0.23-1.39c-0.01-0.08-0.02-0.17-0.03-0.25
		c-0.03-0.35-0.05-0.7-0.05-1.04l0.03-12.21c-0.49-0.21-0.98-0.45-1.47-0.73l-53.39-30.83c-0.37-0.21-0.73-0.45-1.09-0.69
		c-0.11-0.07-0.21-0.15-0.32-0.23c-0.26-0.18-0.51-0.38-0.76-0.58c-0.11-0.09-0.22-0.17-0.33-0.26c-0.29-0.24-0.57-0.49-0.85-0.75
		c-0.05-0.05-0.11-0.1-0.17-0.15c-0.06-0.06-0.12-0.12-0.18-0.18c-0.38-0.37-0.76-0.75-1.12-1.15c-0.13-0.14-0.25-0.28-0.37-0.42
		c-0.31-0.35-0.6-0.71-0.89-1.08c-0.11-0.14-0.22-0.27-0.32-0.41c-0.38-0.51-0.75-1.03-1.1-1.57c-0.05-0.08-0.1-0.17-0.15-0.25
		c-0.29-0.46-0.58-0.94-0.84-1.42c-0.1-0.19-0.21-0.38-0.31-0.57c-0.16-0.31-0.32-0.61-0.47-0.92c-0.1-0.21-0.2-0.41-0.29-0.62
		c-0.15-0.32-0.28-0.65-0.41-0.97c-0.08-0.2-0.16-0.4-0.24-0.6c-0.14-0.36-0.26-0.73-0.38-1.1c-0.05-0.16-0.11-0.32-0.16-0.49
		c-0.16-0.53-0.31-1.06-0.43-1.58c-0.11-0.46-0.19-0.91-0.27-1.36c-0.02-0.14-0.04-0.27-0.05-0.4c-0.04-0.3-0.08-0.6-0.11-0.89
		c-0.05-0.55-0.09-1.11-0.08-1.65l0.09-31.08l-27.63-15.95c-0.35-0.2-0.69-0.44-1.03-0.68c-0.08-0.06-0.16-0.12-0.24-0.18
		c-0.33-0.26-0.65-0.53-0.97-0.82c-0.03-0.03-0.06-0.07-0.1-0.1c-0.25-0.23-0.48-0.48-0.72-0.74c-0.08-0.09-0.16-0.18-0.24-0.27
		c-0.19-0.22-0.38-0.45-0.56-0.68c-0.07-0.09-0.14-0.17-0.2-0.26c-0.24-0.32-0.48-0.65-0.7-0.99c-0.03-0.05-0.06-0.1-0.09-0.15
		c-0.19-0.3-0.37-0.6-0.54-0.9c-0.07-0.12-0.13-0.24-0.19-0.36c-0.1-0.19-0.2-0.39-0.3-0.59c-0.06-0.13-0.13-0.26-0.18-0.39
		c-0.09-0.2-0.18-0.41-0.26-0.62c-0.05-0.13-0.1-0.25-0.15-0.38c-0.09-0.23-0.17-0.46-0.24-0.69c-0.03-0.1-0.07-0.2-0.1-0.31
		c-0.1-0.33-0.19-0.67-0.27-1c0-0.01,0-0.03-0.01-0.04c-0.11-0.47-0.18-0.93-0.23-1.39c-0.01-0.08-0.02-0.17-0.03-0.25
		c-0.03-0.35-0.05-0.7-0.05-1.04l0.07-24.18c0-0.42,0.04-0.8,0.09-1.18c0.01-0.08,0.02-0.16,0.03-0.24
		c0.06-0.35,0.14-0.69,0.24-0.99c0.02-0.06,0.05-0.12,0.07-0.18c0.08-0.2,0.16-0.39,0.25-0.57c0.04-0.07,0.08-0.14,0.12-0.21
		c0.1-0.18,0.22-0.34,0.34-0.49c0.03-0.04,0.06-0.09,0.1-0.13c0.09-0.1,0.19-0.2,0.29-0.29c0.05-0.05,0.1-0.1,0.15-0.14
		c0.15-0.13,0.31-0.24,0.48-0.34c0,0,0,0,0.01,0l0,0c0,0,0,0,0,0l-8.46,4.92c-0.17,0.1-0.34,0.22-0.49,0.35
		c-0.05,0.04-0.1,0.1-0.15,0.14c-0.1,0.09-0.2,0.19-0.29,0.29c-0.01,0.01-0.02,0.02-0.03,0.03c-0.03,0.03-0.04,0.07-0.07,0.1
		c-0.12,0.15-0.23,0.32-0.34,0.49c-0.04,0.07-0.08,0.14-0.12,0.21c-0.09,0.18-0.18,0.37-0.25,0.57c-0.02,0.05-0.04,0.08-0.06,0.13
		c-0.01,0.01-0.01,0.03-0.01,0.05c-0.1,0.31-0.18,0.64-0.24,0.99c-0.01,0.08-0.02,0.16-0.03,0.24c-0.05,0.37-0.09,0.76-0.09,1.18
		l-0.07,24.18c0,0.34,0.02,0.69,0.05,1.04c0,0.03,0,0.07,0.01,0.1c0.01,0.05,0.02,0.1,0.03,0.15c0.05,0.46,0.13,0.92,0.23,1.39
		c0,0.01,0,0.02,0,0.03c0,0,0,0.01,0,0.01c0.08,0.33,0.17,0.67,0.27,1c0.03,0.1,0.07,0.21,0.1,0.31c0.08,0.23,0.15,0.46,0.24,0.69
		c0.05,0.13,0.1,0.25,0.15,0.38c0.08,0.21,0.17,0.41,0.26,0.62c0.06,0.13,0.12,0.26,0.18,0.39c0.1,0.2,0.19,0.39,0.3,0.59
		c0.04,0.07,0.07,0.14,0.11,0.21c0.03,0.05,0.06,0.1,0.09,0.14c0.17,0.31,0.35,0.61,0.54,0.9c0.03,0.05,0.06,0.1,0.09,0.15
		c0.22,0.34,0.45,0.67,0.7,0.99c0.02,0.03,0.04,0.06,0.06,0.09c0.04,0.06,0.09,0.11,0.14,0.17c0.18,0.23,0.37,0.46,0.56,0.68
		c0.08,0.09,0.16,0.18,0.24,0.27c0.23,0.25,0.47,0.5,0.71,0.73c0.03,0.03,0.05,0.06,0.08,0.09c0.01,0,0.01,0.01,0.02,0.01
		c0.31,0.29,0.64,0.56,0.97,0.82c0.08,0.06,0.16,0.12,0.24,0.18c0.34,0.25,0.68,0.48,1.03,0.68l27.63,15.95l-0.09,31.08
		c0,0.54,0.03,1.09,0.08,1.65c0.01,0.05,0,0.11,0.01,0.16c0.02,0.24,0.06,0.48,0.1,0.73c0.02,0.14,0.03,0.27,0.06,0.41
		c0.07,0.45,0.16,0.89,0.26,1.34c0,0.01,0,0.01,0,0.02c0.12,0.53,0.27,1.06,0.43,1.58c0.05,0.16,0.11,0.33,0.16,0.49
		c0.12,0.37,0.24,0.73,0.38,1.09c0.08,0.2,0.16,0.4,0.24,0.6c0.13,0.33,0.27,0.65,0.41,0.97c0.09,0.21,0.19,0.41,0.29,0.62
		c0.15,0.31,0.3,0.62,0.47,0.92c0.06,0.11,0.11,0.23,0.17,0.34c0.04,0.08,0.09,0.15,0.14,0.23c0.27,0.48,0.55,0.95,0.84,1.41
		c0.05,0.08,0.1,0.17,0.16,0.25c0.35,0.54,0.72,1.06,1.1,1.57c0.03,0.05,0.06,0.1,0.1,0.14c0.07,0.09,0.15,0.18,0.22,0.27
		c0.29,0.37,0.59,0.73,0.89,1.08c0.12,0.14,0.25,0.29,0.38,0.43c0.36,0.4,0.74,0.79,1.12,1.15c0.05,0.04,0.09,0.1,0.14,0.14
		c0.01,0.01,0.03,0.02,0.04,0.04c0.06,0.05,0.11,0.1,0.17,0.15c0.28,0.26,0.56,0.51,0.85,0.74c0.11,0.09,0.22,0.18,0.33,0.26
		c0.25,0.2,0.51,0.39,0.76,0.58c0.11,0.08,0.21,0.16,0.32,0.23c0.36,0.24,0.72,0.48,1.09,0.69l53.4,30.83
		c0.5,0.29,0.99,0.53,1.47,0.73l-0.03,12.21c0,0.34,0.02,0.69,0.05,1.04c0,0.03,0,0.07,0.01,0.1c0.01,0.05,0.02,0.1,0.03,0.15
		c0.05,0.46,0.13,0.92,0.23,1.39c0,0.01,0,0.02,0,0.03c0,0,0,0.01,0,0.01c0.08,0.33,0.17,0.67,0.27,1c0.03,0.1,0.07,0.21,0.1,0.31
		c0.08,0.23,0.15,0.46,0.24,0.69c0.05,0.13,0.1,0.25,0.15,0.38c0.08,0.21,0.17,0.41,0.26,0.62c0.06,0.13,0.12,0.26,0.18,0.39
		c0.1,0.2,0.19,0.39,0.3,0.59c0.04,0.07,0.07,0.14,0.11,0.21c0.03,0.05,0.06,0.1,0.09,0.15c0.17,0.3,0.35,0.6,0.53,0.9
		c0.03,0.05,0.06,0.11,0.1,0.16c0.22,0.34,0.45,0.67,0.7,0.99c0.02,0.03,0.04,0.06,0.06,0.09c0.04,0.06,0.09,0.11,0.14,0.17
		c0.18,0.23,0.37,0.46,0.56,0.68c0.08,0.09,0.16,0.18,0.24,0.27c0.23,0.25,0.47,0.5,0.71,0.73c0.03,0.03,0.06,0.06,0.09,0.09
		c0.01,0.01,0.01,0.01,0.02,0.01c0.31,0.29,0.64,0.56,0.97,0.82c0.08,0.06,0.16,0.12,0.24,0.18c0.34,0.25,0.68,0.48,1.03,0.69
		l33.78,19.5c1.81,1.04,3.47,1.26,4.76,0.77c0.18-0.07,0.36-0.15,0.53-0.25l8.46-4.91C257.63,298.58,255.76,298.46,253.7,297.27z"/>
	<g>
		<path class="st1" d="M51.81,45.2c-0.03-0.17-0.07-0.35-0.12-0.52c-0.06-0.22-0.13-0.45-0.21-0.67c-0.05-0.15-0.1-0.29-0.16-0.43
			c-0.1-0.23-0.2-0.46-0.32-0.69c-0.06-0.13-0.12-0.25-0.19-0.38c-0.22-0.39-0.46-0.77-0.73-1.12c-0.19-0.25-0.38-0.49-0.59-0.71
			c-0.05-0.05-0.1-0.1-0.15-0.15c-0.17-0.18-0.35-0.34-0.54-0.5c-0.07-0.06-0.14-0.13-0.22-0.18c-0.24-0.19-0.49-0.37-0.75-0.52
			L22.07,24.43l-0.02,5.96c0,0.28,0.03,0.56,0.07,0.85c0.02,0.12,0.04,0.25,0.06,0.37c0.03,0.17,0.07,0.35,0.12,0.52
			c0.06,0.23,0.13,0.45,0.21,0.67c0.05,0.15,0.1,0.29,0.16,0.43c0.1,0.23,0.21,0.46,0.32,0.69c0.06,0.13,0.12,0.25,0.19,0.38
			c0.22,0.39,0.46,0.77,0.73,1.12c0.19,0.25,0.38,0.49,0.59,0.71c0.05,0.05,0.1,0.1,0.15,0.15c0.17,0.18,0.35,0.34,0.53,0.5
			c0.07,0.06,0.14,0.13,0.22,0.18c0.24,0.19,0.49,0.37,0.75,0.52l25.78,14.88l0.02-5.96c0-0.28-0.03-0.56-0.07-0.85
			C51.86,45.44,51.84,45.32,51.81,45.2z"/>
		<path class="st2" d="M59.28,49.78c0.01-0.08,0.04-0.15,0.06-0.23c0.03-0.12,0.07-0.22,0.11-0.33c0.02-0.06,0.03-0.12,0.06-0.18
			c0.02-0.05,0.04-0.1,0.06-0.15c0.09-0.19,0.2-0.35,0.32-0.5c0,0,0-0.01,0-0.01c0.14-0.17,0.31-0.31,0.49-0.42l0.02-6.48
			c0-0.21-0.01-0.42-0.03-0.63c-0.01-0.07-0.03-0.14-0.04-0.21c-0.02-0.12-0.04-0.24-0.06-0.37c-0.02-0.1-0.03-0.19-0.05-0.29
			c-0.02-0.08-0.05-0.16-0.07-0.23c-0.06-0.23-0.13-0.45-0.21-0.67c-0.05-0.15-0.1-0.29-0.16-0.44c-0.1-0.23-0.21-0.46-0.32-0.69
			c-0.05-0.1-0.08-0.2-0.14-0.29c-0.02-0.03-0.04-0.05-0.05-0.08c-0.22-0.39-0.46-0.77-0.73-1.12c-0.01-0.02-0.02-0.04-0.03-0.05
			c-0.18-0.23-0.36-0.45-0.56-0.66c-0.05-0.05-0.1-0.1-0.15-0.15c-0.09-0.09-0.17-0.18-0.26-0.26c-0.09-0.09-0.19-0.16-0.28-0.24
			c-0.07-0.06-0.14-0.13-0.22-0.18c-0.24-0.19-0.49-0.37-0.75-0.52l-30.1-17.38c-1.14-0.66-2.18-0.72-2.93-0.29l0,0c0,0,0,0,0,0l0,0
			h0l-8.46,4.91c0,0-0.01,0.01-0.01,0.01c-0.19,0.11-0.35,0.25-0.5,0.42c-0.01,0.01-0.01,0.01-0.02,0.01
			c-0.12,0.14-0.22,0.31-0.31,0.49c-0.02,0.05-0.04,0.1-0.06,0.15c-0.03,0.07-0.06,0.12-0.09,0.19c-0.03,0.1-0.05,0.21-0.08,0.31
			c-0.02,0.08-0.04,0.15-0.06,0.23c-0.05,0.26-0.08,0.53-0.08,0.82l-0.03,11.02c0,0.21,0.01,0.42,0.03,0.63
			c0.01,0.07,0.03,0.14,0.04,0.21c0.02,0.12,0.04,0.24,0.06,0.37c0.02,0.1,0.03,0.19,0.05,0.29c0.02,0.08,0.05,0.16,0.07,0.23
			c0.06,0.23,0.13,0.45,0.21,0.67c0.05,0.15,0.1,0.29,0.16,0.43c0.1,0.23,0.2,0.46,0.32,0.69c0.05,0.1,0.08,0.2,0.14,0.29
			c0.02,0.03,0.04,0.05,0.05,0.08c0.22,0.39,0.46,0.77,0.73,1.12c0.01,0.02,0.02,0.04,0.03,0.05c0.18,0.23,0.36,0.45,0.56,0.66
			c0.05,0.05,0.1,0.1,0.15,0.15c0.09,0.09,0.17,0.18,0.26,0.26c0.09,0.09,0.19,0.16,0.28,0.24c0.07,0.06,0.14,0.13,0.22,0.18
			c0.24,0.19,0.49,0.37,0.75,0.52l30.1,17.38c1.14,0.66,2.18,0.72,2.93,0.29l0,0c0,0,0,0,0,0l8.46-4.92c0.01,0,0.01-0.01,0.02-0.02
			l0.01-4.54C59.2,50.3,59.23,50.03,59.28,49.78z M51.93,52.37L26.15,37.49c-0.26-0.15-0.51-0.33-0.75-0.52
			c-0.07-0.06-0.15-0.12-0.22-0.18c-0.18-0.16-0.36-0.32-0.53-0.5c-0.05-0.05-0.1-0.1-0.15-0.15c-0.21-0.22-0.4-0.46-0.59-0.71
			c-0.27-0.35-0.51-0.73-0.73-1.12c-0.07-0.12-0.13-0.25-0.19-0.38c-0.11-0.23-0.22-0.45-0.32-0.69c-0.06-0.14-0.11-0.29-0.16-0.43
			c-0.08-0.22-0.15-0.45-0.21-0.67c-0.05-0.17-0.09-0.35-0.12-0.52c-0.02-0.12-0.05-0.25-0.06-0.37c-0.04-0.29-0.07-0.57-0.07-0.85
			l0.02-5.96l25.78,14.88c0.26,0.15,0.51,0.33,0.75,0.52c0.07,0.06,0.14,0.12,0.22,0.18c0.18,0.16,0.36,0.32,0.54,0.5
			c0.05,0.05,0.1,0.1,0.15,0.15c0.21,0.22,0.4,0.46,0.59,0.71c0.27,0.35,0.51,0.73,0.73,1.12c0.07,0.12,0.13,0.25,0.19,0.38
			c0.11,0.23,0.22,0.45,0.32,0.69c0.06,0.14,0.11,0.29,0.16,0.43c0.08,0.22,0.15,0.45,0.21,0.67c0.05,0.17,0.09,0.35,0.12,0.52
			c0.02,0.12,0.05,0.25,0.06,0.37c0.04,0.29,0.07,0.57,0.07,0.85L51.93,52.37z"/>
	</g>
	<path class="st2" d="M349.59,219.5l0.03-11.02c0-0.21-0.01-0.42-0.03-0.63c-0.01-0.07-0.03-0.14-0.04-0.21
		c-0.02-0.12-0.04-0.24-0.06-0.37c-0.02-0.1-0.03-0.19-0.05-0.29c-0.02-0.08-0.05-0.16-0.07-0.23c-0.06-0.23-0.13-0.45-0.21-0.67
		c-0.05-0.15-0.1-0.29-0.16-0.43c-0.1-0.23-0.2-0.46-0.32-0.69c-0.05-0.1-0.08-0.2-0.14-0.29c-0.02-0.03-0.04-0.05-0.05-0.08
		c-0.22-0.39-0.46-0.77-0.73-1.12c-0.01-0.02-0.02-0.04-0.03-0.05c-0.18-0.23-0.36-0.45-0.56-0.66c-0.05-0.05-0.1-0.1-0.15-0.15
		c-0.09-0.09-0.17-0.18-0.26-0.26c-0.09-0.09-0.19-0.16-0.28-0.24c-0.07-0.06-0.14-0.13-0.22-0.18c-0.24-0.19-0.49-0.37-0.75-0.52
		L71.79,43.34c-1.14-0.66-2.18-0.72-2.93-0.29l0,0c0,0,0,0,0,0l-8.46,4.91c0,0-0.01,0.01-0.01,0.01c0,0,0,0-0.01,0.01
		c-0.18,0.11-0.35,0.25-0.49,0.42c0,0,0,0.01,0,0.01c-0.12,0.14-0.23,0.31-0.32,0.5c-0.02,0.05-0.04,0.1-0.06,0.15
		c-0.02,0.05-0.04,0.12-0.06,0.18c-0.04,0.11-0.08,0.21-0.11,0.33c-0.02,0.08-0.04,0.15-0.06,0.23c-0.05,0.26-0.08,0.53-0.08,0.82
		l-0.01,4.54l-0.02,6.48c0,0.2,0.03,0.41,0.05,0.62c0.01,0.07,0.01,0.15,0.02,0.22c0.02,0.12,0.04,0.24,0.06,0.37
		c0.02,0.09,0.04,0.19,0.06,0.28c0.02,0.08,0.03,0.16,0.06,0.24c0.06,0.22,0.13,0.45,0.21,0.67c0.05,0.15,0.1,0.29,0.16,0.43
		c0.1,0.23,0.21,0.46,0.32,0.69c0.05,0.1,0.09,0.19,0.15,0.29c0.02,0.03,0.03,0.06,0.05,0.09c0.22,0.39,0.46,0.77,0.73,1.12
		c0.01,0.02,0.03,0.03,0.04,0.05c0.18,0.23,0.36,0.45,0.55,0.66c0.05,0.05,0.1,0.1,0.15,0.15c0.09,0.09,0.18,0.17,0.27,0.25
		c0.09,0.08,0.17,0.17,0.26,0.25c0.07,0.06,0.14,0.13,0.22,0.18c0.24,0.19,0.49,0.37,0.75,0.52l273.74,158.05
		c0.86,0.5,1.65,0.65,2.31,0.52c0.22-0.04,0.42-0.12,0.61-0.23l0,0c0,0,0,0,0,0l8.46-4.91c0.19-0.11,0.36-0.26,0.51-0.43
		c0-0.01,0.01-0.01,0.02-0.01c0.12-0.14,0.22-0.31,0.31-0.49c0.02-0.05,0.04-0.1,0.07-0.15c0.03-0.06,0.06-0.12,0.09-0.19
		c0.03-0.1,0.05-0.21,0.08-0.31c0.02-0.08,0.04-0.15,0.06-0.23C349.56,220.07,349.59,219.8,349.59,219.5z M71.73,63.8
		c-0.26-0.15-0.51-0.33-0.75-0.52c-0.07-0.06-0.15-0.12-0.22-0.19c-0.09-0.08-0.19-0.15-0.28-0.24c-0.09-0.08-0.17-0.17-0.26-0.26
		c-0.05-0.05-0.1-0.1-0.15-0.15c-0.19-0.21-0.38-0.43-0.56-0.66c-0.01-0.02-0.02-0.04-0.03-0.05c-0.27-0.36-0.51-0.73-0.73-1.12
		c-0.02-0.03-0.04-0.05-0.05-0.08c-0.05-0.1-0.09-0.2-0.14-0.29c-0.11-0.23-0.22-0.45-0.32-0.69c-0.06-0.14-0.11-0.29-0.16-0.43
		c-0.08-0.23-0.15-0.45-0.21-0.67c-0.02-0.08-0.05-0.15-0.07-0.23c-0.02-0.1-0.03-0.19-0.05-0.29c-0.02-0.12-0.05-0.25-0.06-0.37
		c-0.01-0.07-0.03-0.14-0.04-0.21c-0.02-0.21-0.03-0.43-0.03-0.63l0.02-5.96L337.07,206.3c0.26,0.15,0.51,0.33,0.75,0.52
		c0.07,0.06,0.14,0.12,0.22,0.18c0.18,0.16,0.36,0.32,0.54,0.5c0.05,0.05,0.1,0.1,0.15,0.15c0.21,0.22,0.4,0.46,0.59,0.71
		c0.27,0.35,0.51,0.73,0.73,1.12c0.07,0.12,0.13,0.25,0.19,0.38c0.11,0.23,0.22,0.46,0.32,0.69c0.06,0.14,0.11,0.29,0.16,0.43
		c0.08,0.22,0.15,0.45,0.21,0.67c0.05,0.17,0.09,0.35,0.12,0.52c0.02,0.12,0.05,0.25,0.06,0.37c0.04,0.29,0.07,0.57,0.07,0.85
		l-0.02,5.96L71.73,63.8z"/>
	<g>
		<path class="st3" d="M337.07,206.3c2.27,1.31,4.11,4.49,4.1,7.1l-0.03,11.02c-0.01,2.61-1.85,3.66-4.13,2.35L63.27,68.72
			c-2.27-1.31-4.11-4.49-4.1-7.1L59.2,50.6c0.01-2.61,1.85-3.66,4.13-2.35L337.07,206.3z"/>
	</g>
	<g>
		<path class="st4" d="M339.45,193.57c8.84,5.1,15.98,17.48,15.95,27.63l-0.44,154.9c-0.03,10.15-7.22,14.25-16.05,9.15
			L15.95,198.79C7.11,193.69-0.03,181.32,0,171.17l0.44-154.9C0.47,6.11,7.65,2.01,16.49,7.11L339.45,193.57z M252.69,297.94
			l0.07-24.17c0.01-4.72-3.3-10.46-7.41-12.83l-30.95-17.87l0.09-31.08c0.02-7.45-5.22-16.53-11.7-20.28l-51.56-29.77l0.03-12.09
			c0.01-4.72-3.3-10.46-7.41-12.83l-33.78-19.5c-4.11-2.37-7.44-0.47-7.46,4.25l-0.07,24.18c-0.01,4.71,3.3,10.46,7.41,12.83
			l27.63,15.95l-0.09,31.08c-0.02,7.46,5.22,16.54,11.71,20.28l53.39,30.83c0.5,0.29,0.99,0.53,1.47,0.73l-0.03,12.21
			c-0.01,4.72,3.3,10.46,7.41,12.83l33.78,19.5C249.34,304.56,252.68,302.66,252.69,297.94 M341.14,224.41l0.03-11.02
			c0.01-2.61-1.83-5.79-4.1-7.1L63.33,48.25c-2.27-1.31-4.12-0.26-4.13,2.35l-0.03,11.02c-0.01,2.61,1.83,5.79,4.1,7.1
			l273.74,158.05C339.28,228.08,341.13,227.03,341.14,224.41 M51.91,57.43l0.03-11.02c0.01-2.61-1.83-5.79-4.1-7.1l-30.1-17.38
			c-2.27-1.31-4.12-0.26-4.13,2.35l-0.03,11.02c-0.01,2.61,1.83,5.79,4.1,7.1l30.1,17.38C50.06,61.09,51.9,60.04,51.91,57.43"/>
	</g>
	<g>
		<path class="st3" d="M47.84,39.31c2.27,1.31,4.11,4.49,4.1,7.1l-0.03,11.02c-0.01,2.61-1.85,3.66-4.13,2.35L17.69,42.4
			c-2.27-1.31-4.11-4.49-4.1-7.1l0.03-11.02c0.01-2.61,1.85-3.66,4.13-2.35L47.84,39.31z"/>
	</g>
	<path class="st5" d="M363.78,214.56c-0.01-0.13-0.02-0.26-0.03-0.39c-0.01-0.12-0.02-0.23-0.03-0.35
		c-0.03-0.33-0.09-0.66-0.13-0.99c-0.03-0.19-0.05-0.37-0.08-0.56c-0.1-0.61-0.22-1.22-0.36-1.83c0-0.01,0-0.01-0.01-0.02
		c-0.17-0.72-0.36-1.44-0.58-2.16c-0.07-0.22-0.15-0.44-0.22-0.66c-0.16-0.5-0.33-0.99-0.52-1.49c-0.1-0.27-0.22-0.54-0.33-0.81
		c-0.18-0.44-0.37-0.89-0.57-1.33c-0.13-0.28-0.26-0.56-0.4-0.84c-0.21-0.43-0.42-0.85-0.64-1.27c-0.08-0.15-0.15-0.31-0.23-0.46
		c-0.06-0.11-0.13-0.2-0.18-0.31c-0.37-0.66-0.75-1.31-1.15-1.94c-0.07-0.11-0.13-0.22-0.2-0.33c-0.48-0.73-0.98-1.44-1.5-2.13
		c-0.05-0.06-0.09-0.13-0.14-0.2c-0.3-0.4-0.62-0.79-0.93-1.17c-0.05-0.06-0.1-0.11-0.14-0.17c-0.36-0.43-0.73-0.85-1.11-1.26
		c-0.1-0.11-0.21-0.22-0.31-0.34c-0.41-0.43-0.82-0.85-1.24-1.24c-0.02-0.02-0.03-0.03-0.05-0.04c-0.07-0.07-0.14-0.13-0.21-0.19
		c-0.39-0.35-0.78-0.7-1.17-1.03c-0.15-0.12-0.3-0.24-0.45-0.36c-0.34-0.27-0.69-0.53-1.04-0.78c-0.15-0.1-0.29-0.21-0.44-0.31
		c-0.49-0.33-0.98-0.65-1.48-0.94L24.95,2.19c-4.44-2.57-8.47-2.8-11.38-1.11L5.11,6c2.91-1.69,6.94-1.45,11.38,1.11l322.95,186.46
		c0.5,0.29,0.99,0.61,1.48,0.94c0.15,0.1,0.29,0.21,0.44,0.31c0.35,0.25,0.7,0.51,1.04,0.78c0.15,0.12,0.3,0.24,0.45,0.36
		c0.4,0.33,0.79,0.67,1.17,1.03c0.07,0.06,0.14,0.12,0.21,0.19c0.44,0.41,0.87,0.85,1.29,1.29c0.11,0.11,0.21,0.22,0.31,0.34
		c0.38,0.41,0.75,0.83,1.11,1.26c0.05,0.06,0.1,0.11,0.14,0.17c0.37,0.44,0.72,0.9,1.07,1.37c0.52,0.69,1.02,1.4,1.5,2.13
		c0.07,0.11,0.13,0.22,0.2,0.33c0.4,0.64,0.79,1.28,1.16,1.94c0.14,0.26,0.28,0.51,0.42,0.77c0.22,0.42,0.43,0.84,0.64,1.26
		c0.14,0.28,0.27,0.56,0.4,0.84c0.2,0.44,0.38,0.88,0.57,1.33c0.11,0.27,0.22,0.54,0.33,0.81c0.19,0.5,0.36,0.99,0.52,1.49
		c0.07,0.22,0.15,0.44,0.22,0.66c0.22,0.72,0.42,1.44,0.58,2.16c0.14,0.62,0.26,1.24,0.36,1.85c0.03,0.19,0.05,0.37,0.08,0.56
		c0.06,0.45,0.12,0.9,0.16,1.34c0.01,0.13,0.02,0.26,0.03,0.39c0.04,0.58,0.07,1.15,0.07,1.72l-0.44,154.9
		c0,0.58-0.03,1.13-0.08,1.67c-0.01,0.17-0.04,0.33-0.06,0.49c-0.04,0.37-0.09,0.73-0.16,1.07c-0.03,0.17-0.06,0.34-0.1,0.51
		c-0.07,0.34-0.16,0.67-0.26,0.99c-0.04,0.14-0.08,0.28-0.12,0.41c-0.14,0.41-0.29,0.81-0.46,1.19c-0.04,0.08-0.08,0.15-0.11,0.23
		c-0.16,0.32-0.32,0.62-0.5,0.91c-0.05,0.08-0.09,0.15-0.14,0.23c-0.21,0.32-0.44,0.62-0.68,0.9c-0.2,0.23-0.41,0.43-0.63,0.63
		c-0.11,0.1-0.2,0.21-0.31,0.3c-0.33,0.28-0.69,0.53-1.06,0.75l0,0c0,0,0,0,0,0l8.46-4.92c0.37-0.22,0.72-0.47,1.06-0.75
		c0.11-0.09,0.21-0.2,0.31-0.3c0.21-0.2,0.43-0.4,0.63-0.63c0.02-0.02,0.04-0.04,0.06-0.06c0.22-0.26,0.42-0.54,0.62-0.84
		c0.05-0.07,0.09-0.15,0.14-0.23c0.18-0.29,0.35-0.59,0.5-0.91c0.04-0.08,0.08-0.15,0.11-0.22c0.15-0.33,0.29-0.67,0.42-1.03
		c0.02-0.05,0.03-0.11,0.05-0.16c0.04-0.13,0.08-0.27,0.12-0.41c0.09-0.32,0.18-0.65,0.25-0.99c0.04-0.17,0.07-0.34,0.1-0.51
		c0.06-0.35,0.11-0.7,0.16-1.07c0.02-0.16,0.04-0.32,0.06-0.49c0.05-0.54,0.08-1.09,0.08-1.66l0.44-154.9
		C363.85,215.72,363.82,215.14,363.78,214.56z"/>
</g>
<g id="logo">
	<g>
		<path class="st6" d="M54.89,173.95c4.11,2.37,7.42,8.11,7.41,12.83l-0.03,12.09l51.56,29.77c6.49,3.75,11.73,12.83,11.71,20.28
			l-0.09,31.08l30.94,17.86c4.11,2.37,7.42,8.11,7.41,12.83l-0.07,24.17c-0.01,4.72-3.35,6.62-7.46,4.25l-33.78-19.5
			c-4.11-2.37-7.42-8.11-7.41-12.83l0.03-12.21c-0.49-0.21-0.98-0.45-1.48-0.73l-53.39-30.83c-6.49-3.75-11.73-12.82-11.71-20.28
			l0.09-31.08L21,195.72c-4.11-2.37-7.42-8.12-7.41-12.83l0.07-24.18c0.01-4.72,3.35-6.62,7.46-4.25L54.89,173.95z"/>
	</g>
	<path class="st7" d="M172.22,304.95c-0.01-0.09-0.02-0.18-0.03-0.28c-0.02-0.19-0.04-0.38-0.07-0.58
		c-0.02-0.11-0.04-0.22-0.06-0.33c-0.03-0.18-0.07-0.36-0.11-0.54c-0.02-0.11-0.05-0.23-0.08-0.34c-0.04-0.18-0.09-0.36-0.15-0.55
		c-0.03-0.11-0.06-0.22-0.1-0.33c-0.06-0.2-0.13-0.39-0.2-0.59c-0.03-0.09-0.06-0.19-0.1-0.28c-0.11-0.28-0.22-0.57-0.34-0.85
		c0,0,0-0.01,0-0.01c-0.12-0.28-0.26-0.57-0.4-0.85c-0.05-0.09-0.09-0.18-0.14-0.27c-0.1-0.19-0.2-0.38-0.3-0.56
		c-0.06-0.1-0.12-0.2-0.18-0.31c-0.1-0.17-0.2-0.34-0.31-0.5c-0.07-0.1-0.13-0.21-0.2-0.31c-0.11-0.16-0.22-0.32-0.33-0.48
		c-0.07-0.1-0.14-0.19-0.21-0.29c-0.13-0.17-0.26-0.33-0.39-0.49c-0.06-0.08-0.12-0.16-0.19-0.24c-0.2-0.23-0.39-0.46-0.6-0.68
		c0,0,0-0.01-0.01-0.01c-0.21-0.22-0.42-0.43-0.64-0.64c-0.07-0.07-0.14-0.13-0.21-0.19c-0.11-0.1-0.22-0.21-0.34-0.31
		c-0.03-0.03-0.06-0.05-0.09-0.07c-0.17-0.14-0.35-0.28-0.53-0.41c-0.09-0.06-0.17-0.13-0.26-0.2c-0.27-0.19-0.54-0.37-0.82-0.53
		l-30.94-17.86l0.09-31.08c0-0.44-0.02-0.88-0.05-1.32c-0.01-0.14-0.03-0.29-0.05-0.44c-0.03-0.3-0.06-0.61-0.11-0.92
		c-0.03-0.17-0.06-0.34-0.09-0.52c-0.05-0.29-0.11-0.57-0.17-0.86c-0.04-0.18-0.08-0.36-0.12-0.54c-0.07-0.29-0.15-0.58-0.23-0.86
		c-0.05-0.17-0.1-0.35-0.15-0.52c-0.1-0.31-0.2-0.62-0.31-0.93c-0.05-0.15-0.1-0.3-0.15-0.44c-0.17-0.45-0.35-0.9-0.54-1.34
		c0-0.01,0-0.01-0.01-0.02c-0.2-0.45-0.41-0.9-0.63-1.34c-0.07-0.14-0.15-0.28-0.22-0.42c-0.16-0.3-0.31-0.59-0.48-0.89
		c-0.09-0.16-0.19-0.33-0.29-0.49c-0.16-0.27-0.32-0.53-0.49-0.79c-0.1-0.16-0.21-0.33-0.32-0.49c-0.17-0.26-0.35-0.51-0.53-0.76
		c-0.11-0.15-0.22-0.3-0.33-0.45c-0.2-0.27-0.41-0.53-0.61-0.78c-0.1-0.12-0.2-0.25-0.3-0.37c-0.3-0.36-0.61-0.71-0.93-1.05
		c-0.01-0.01-0.02-0.02-0.03-0.04c-0.33-0.35-0.66-0.68-1.01-1.01c-0.11-0.1-0.22-0.2-0.33-0.3c-0.18-0.16-0.36-0.33-0.54-0.49
		c-0.05-0.04-0.1-0.07-0.15-0.11c-0.28-0.23-0.56-0.44-0.84-0.65c-0.14-0.1-0.27-0.21-0.41-0.31c-0.42-0.3-0.85-0.58-1.29-0.83
		l-51.56-29.77l0.03-12.09c0-0.28-0.01-0.56-0.03-0.84c-0.01-0.09-0.02-0.18-0.03-0.28c-0.02-0.19-0.04-0.38-0.07-0.58
		c-0.02-0.11-0.04-0.22-0.06-0.33c-0.03-0.18-0.07-0.36-0.11-0.54c-0.02-0.11-0.05-0.23-0.08-0.34c-0.04-0.18-0.09-0.36-0.15-0.54
		c-0.03-0.11-0.06-0.22-0.1-0.33c-0.06-0.2-0.13-0.39-0.2-0.59c-0.03-0.09-0.06-0.19-0.1-0.28c-0.11-0.28-0.22-0.57-0.34-0.85
		c0,0,0-0.01,0-0.01c-0.12-0.28-0.26-0.57-0.4-0.85c-0.04-0.09-0.09-0.18-0.14-0.27c-0.1-0.19-0.2-0.38-0.3-0.56
		c-0.06-0.1-0.12-0.2-0.18-0.31c-0.1-0.17-0.2-0.34-0.31-0.5c-0.07-0.1-0.13-0.21-0.2-0.31c-0.11-0.16-0.22-0.32-0.33-0.48
		c-0.07-0.1-0.14-0.19-0.21-0.29c-0.13-0.17-0.26-0.33-0.39-0.49c-0.06-0.08-0.12-0.16-0.19-0.24c-0.2-0.23-0.39-0.46-0.6-0.68
		c0,0,0-0.01-0.01-0.01c-0.21-0.22-0.42-0.43-0.64-0.64c-0.07-0.07-0.14-0.13-0.21-0.19c-0.11-0.1-0.22-0.21-0.34-0.31
		c-0.03-0.03-0.06-0.05-0.09-0.07c-0.17-0.14-0.35-0.28-0.53-0.41c-0.09-0.06-0.17-0.13-0.26-0.2c-0.27-0.19-0.54-0.37-0.82-0.53
		l-33.77-19.5c-0.25-0.15-0.5-0.27-0.75-0.39c-0.08-0.04-0.16-0.06-0.24-0.1c-0.16-0.07-0.33-0.14-0.48-0.19
		c-0.1-0.03-0.19-0.06-0.28-0.08c-0.14-0.04-0.28-0.09-0.42-0.12c-0.1-0.02-0.19-0.03-0.29-0.05c-0.11-0.02-0.22-0.04-0.32-0.06
		c-0.02,0-0.04,0-0.06,0c-0.1-0.01-0.2-0.01-0.31-0.01c-0.12,0-0.23-0.01-0.34-0.01c-0.1,0-0.19,0.02-0.29,0.03
		c-0.11,0.01-0.22,0.02-0.32,0.04c-0.09,0.02-0.18,0.04-0.27,0.07c-0.1,0.03-0.2,0.05-0.3,0.09c-0.09,0.03-0.17,0.07-0.25,0.11
		c-0.07,0.03-0.14,0.05-0.2,0.09c-0.05,0.03-0.1,0.05-0.15,0.08l-8.46,4.92c0.11-0.06,0.23-0.11,0.35-0.17
		c0.08-0.04,0.17-0.08,0.25-0.11c0.1-0.03,0.2-0.06,0.3-0.09c0.09-0.02,0.18-0.05,0.27-0.07c0.1-0.02,0.21-0.03,0.32-0.04
		c0.1-0.01,0.19-0.02,0.29-0.03c0.11,0,0.23,0,0.35,0.01c0.1,0,0.2,0,0.3,0.01c0.13,0.01,0.26,0.04,0.38,0.06
		c0.1,0.02,0.19,0.03,0.29,0.05c0.14,0.03,0.28,0.08,0.42,0.12c0.09,0.03,0.19,0.05,0.28,0.08c0.16,0.05,0.32,0.12,0.48,0.19
		c0.08,0.03,0.16,0.06,0.24,0.1c0.25,0.11,0.5,0.24,0.75,0.39l33.77,19.5c0.28,0.16,0.55,0.34,0.82,0.53
		c0.09,0.06,0.18,0.13,0.26,0.2c0.18,0.13,0.35,0.27,0.53,0.41c0.15,0.12,0.29,0.25,0.43,0.38c0.07,0.06,0.14,0.13,0.21,0.19
		c0.22,0.2,0.43,0.42,0.64,0.64c0,0,0,0.01,0.01,0.01c0.21,0.22,0.4,0.45,0.6,0.68c0.07,0.08,0.13,0.16,0.19,0.24
		c0.13,0.16,0.26,0.32,0.38,0.49c0.07,0.1,0.14,0.19,0.21,0.29c0.11,0.16,0.23,0.32,0.33,0.48c0.07,0.1,0.14,0.21,0.2,0.31
		c0.11,0.17,0.21,0.33,0.31,0.5c0.06,0.1,0.12,0.2,0.18,0.31c0.11,0.19,0.21,0.37,0.3,0.56c0.05,0.09,0.1,0.18,0.14,0.27
		c0.14,0.28,0.27,0.56,0.4,0.85c0,0,0,0.01,0,0.01c0.12,0.28,0.24,0.57,0.34,0.85c0.03,0.09,0.07,0.19,0.1,0.28
		c0.07,0.2,0.14,0.39,0.2,0.59c0.03,0.11,0.06,0.22,0.1,0.33c0.05,0.18,0.1,0.36,0.15,0.54c0.03,0.11,0.05,0.23,0.08,0.34
		c0.04,0.18,0.07,0.36,0.11,0.54c0.02,0.11,0.04,0.22,0.06,0.33c0.03,0.19,0.05,0.39,0.07,0.58c0.01,0.09,0.02,0.19,0.03,0.28
		c0.02,0.28,0.03,0.56,0.03,0.84l-0.03,12.09l51.56,29.77c0.44,0.25,0.87,0.53,1.29,0.83c0.14,0.1,0.27,0.21,0.41,0.31
		c0.28,0.21,0.56,0.42,0.84,0.65c0.23,0.19,0.46,0.4,0.69,0.6c0.11,0.1,0.22,0.2,0.33,0.3c0.34,0.32,0.68,0.66,1.01,1.01
		c0.01,0.01,0.02,0.02,0.03,0.03c0.32,0.34,0.63,0.7,0.93,1.06c0.1,0.12,0.2,0.25,0.3,0.37c0.21,0.26,0.41,0.52,0.61,0.78
		c0.11,0.15,0.22,0.3,0.33,0.45c0.18,0.25,0.36,0.51,0.53,0.76c0.11,0.16,0.21,0.32,0.32,0.49c0.17,0.26,0.33,0.53,0.49,0.8
		c0.1,0.16,0.19,0.32,0.29,0.49c0.17,0.29,0.33,0.59,0.48,0.89c0.07,0.14,0.15,0.28,0.22,0.42c0.22,0.44,0.43,0.89,0.63,1.34
		c0,0.01,0.01,0.02,0.01,0.03c0.19,0.44,0.37,0.88,0.54,1.33c0.06,0.15,0.1,0.3,0.16,0.44c0.11,0.31,0.22,0.62,0.31,0.93
		c0.05,0.17,0.1,0.35,0.15,0.52c0.08,0.29,0.16,0.57,0.23,0.86c0.04,0.18,0.09,0.36,0.12,0.54c0.06,0.29,0.12,0.57,0.17,0.86
		c0.03,0.17,0.06,0.35,0.09,0.52c0.05,0.31,0.08,0.61,0.11,0.92c0.01,0.15,0.03,0.29,0.05,0.44c0.03,0.45,0.05,0.89,0.05,1.32
		l-0.09,31.08l30.94,17.86c0.28,0.16,0.55,0.34,0.82,0.53c0.09,0.06,0.17,0.13,0.26,0.2c0.18,0.13,0.36,0.27,0.53,0.41
		c0.15,0.12,0.29,0.25,0.43,0.38c0.07,0.06,0.14,0.13,0.21,0.19c0.22,0.2,0.43,0.42,0.64,0.64c0,0,0.01,0.01,0.01,0.01
		c0.2,0.22,0.4,0.45,0.6,0.68c0.06,0.08,0.13,0.16,0.19,0.24c0.13,0.16,0.26,0.33,0.39,0.5c0.07,0.09,0.14,0.19,0.21,0.29
		c0.11,0.16,0.23,0.32,0.34,0.48c0.07,0.1,0.13,0.2,0.2,0.31c0.11,0.17,0.21,0.33,0.31,0.5c0.06,0.1,0.12,0.2,0.18,0.31
		c0.11,0.19,0.21,0.37,0.3,0.56c0.05,0.09,0.1,0.18,0.14,0.27c0.28,0.56,0.53,1.13,0.74,1.7c0.03,0.09,0.07,0.19,0.1,0.28
		c0.07,0.2,0.14,0.39,0.2,0.59c0.03,0.11,0.06,0.22,0.1,0.33c0.05,0.18,0.1,0.36,0.15,0.55c0.03,0.11,0.05,0.23,0.08,0.34
		c0.04,0.18,0.07,0.36,0.11,0.54c0.02,0.11,0.04,0.22,0.06,0.33c0.03,0.19,0.05,0.39,0.07,0.58c0.01,0.09,0.02,0.19,0.03,0.28
		c0.02,0.28,0.03,0.56,0.03,0.84l-0.07,24.17c-0.01,2.34-0.83,3.99-2.17,4.77l8.46-4.92c1.33-0.78,2.16-2.42,2.17-4.77l0.07-24.17
		C172.25,305.51,172.24,305.23,172.22,304.95z"/>
</g>
</svg>
